<mxfile host="app.diagrams.net" modified="2023-06-16T16:42:42.344Z" agent="Mozilla/5.0 (Macintosh; Intel Mac OS X 10_13_6) AppleWebKit/537.36 (KHTML, like Gecko) Chrome/97.0.4692.71 Safari/537.36" version="21.4.0" etag="9USnnhQdWV_WpcngeWxu" type="github">
  <diagram name="PÃ¡gina-1" id="Gy9jGdvcGor4GX7wiR0N">
    <mxGraphModel>
      <root>
        <mxCell id="0" />
        <mxCell id="1" parent="0" />
      </root>
    </mxGraphModel>
  </diagram>
</mxfile>
